<?xml version="1.0" encoding="utf-8"?>
<!-- Generator: Adobe Illustrator 23.0.0, SVG Export Plug-In . SVG Version: 6.00 Build 0)  -->
<svg version="1.1" id="Layer_1" xmlns="http://www.w3.org/2000/svg" xmlns:xlink="http://www.w3.org/1999/xlink" x="0px" y="0px"
	 viewBox="0 0 110 98" style="enable-background:new 0 0 110 98;" xml:space="preserve">
<style type="text/css">
	.st0{fill:#FFFFFF;stroke:#000000;}
</style>
<rect y="0" width="110" height="98"/>
<g>
	<path d="M28.76,126.82c1.3,0,2.54,0.18,4,0.76l-0.31,3.52c-0.88-0.45-2.03-0.75-3.38-0.75c-2.04,0-3.87,0.82-3.87,3.09
		c0,2.29,2.02,3.16,4.01,3.16c1,0,2.06-0.3,3.24-1.02l0.66,3.49c-1.73,0.99-3.2,1.11-4.83,1.11c-4.03,0-7.31-2.58-7.31-6.68
		C20.98,129.02,24.52,126.86,28.76,126.82z"/>
	<path d="M34.13,127.01h3.97v7.65c0,1.34,1.14,2.02,2.24,2.02c1.17,0,2.25-0.74,2.25-2.02v-7.65h3.97v8.06c0,3.5-3.19,5.1-6.23,5.1
		c-3.28,0-6.21-1.74-6.21-5.1V127.01z"/>
	<path d="M57.98,127.66l-0.34,3.52c-0.98-0.56-2.33-1.01-3.97-1.01c-0.96,0-1.75,0.12-1.75,0.78c0,0.35,0.52,0.53,1.12,0.7
		l2.17,0.64c2.17,0.64,3.57,1.73,3.57,3.74c0,2.48-2.13,4.16-5.58,4.16c-2.75,0-4.56-0.68-5.49-1.11l0.45-3.5
		c1.07,0.56,2.4,1.18,4.74,1.18c0.84,0,1.44-0.19,1.44-0.69c0-0.3-0.23-0.53-0.93-0.73l-1.99-0.54c-1.71-0.46-3.73-1.41-3.73-3.97
		c0-2.5,2.32-4.03,5.75-4.03C55.43,126.81,56.95,127.18,57.98,127.66z"/>
	<path d="M62.99,130.34h-3.62v-3.32h11.55v3.32h-3.77v9.65h-4.15V130.34z"/>
	<path d="M78.53,126.82c4.1,0,6.93,2.74,6.93,6.67c0,3.94-2.84,6.69-6.93,6.69c-4.13,0-6.97-2.75-6.97-6.7
		C71.56,129.55,74.4,126.82,78.53,126.82z M78.54,136.54c1.64,0,2.73-1.23,2.73-3.05c0-1.78-1.09-2.99-2.73-2.99
		c-1.68,0-2.8,1.21-2.8,2.99C75.74,135.3,76.86,136.54,78.54,136.54z"/>
	<path d="M89.91,127.01l4.31,4.89l4.3-4.89h3.3v12.97h-4v-6.77l-3.36,3.75h-0.42l-3.42-3.76v6.78h-3.98v-12.97H89.91z"/>
</g>
<g>
	<path d="M21.88,143.24h5.2v15.5h0.05c1.31-3.39,4.25-10.78,6.14-15.5h5.89l-6.25,13.33l6.62,20.98h-5.76l-4.48-15.45l-2.21,4.62
		v10.83h-5.2V143.24z"/>
	<path d="M46.69,143.24v34.31h-5.29v-34.31H46.69z"/>
	<path d="M66.23,167.29v1.34c0,3.92-0.65,9.42-7.91,9.42c-6.35,0-7.7-3.97-7.7-9.21v-17.3c0-5.29,2.4-8.81,7.79-8.81
		c6.44,0,7.66,4.27,7.66,9.02v1.54h-5.3v-2.16c0-2.28-0.53-3.58-2.37-3.58c-1.81,0-2.39,1.25-2.39,3.6v18.14
		c0,2.24,0.45,3.98,2.45,3.98c1.91,0,2.42-1.51,2.42-4.06v-1.92H66.23z"/>
	<path d="M69.33,143.24h5.2v15.5h0.05c1.32-3.39,4.25-10.78,6.14-15.5h5.89l-6.25,13.33l6.62,20.98h-5.76l-4.48-15.45l-2.21,4.62
		v10.83h-5.2V143.24z"/>
	<path d="M93.42,167.45v2.12c0,2.55,0.77,3.97,2.78,3.97c2.06,0,2.6-1.95,2.6-4.18c0-3.69-0.79-4.83-4.47-7.73
		c-3.69-2.92-5.66-4.78-5.66-9.86c0-4.52,1.37-9.09,7.56-9.08c6.33,0.01,7.31,4.52,7.31,8.24v1.83h-5.25v-1.69
		c0-2.39-0.4-3.84-2.16-3.84c-1.72,0-2.17,1.5-2.17,3.77c0,2.42,0.46,3.61,3.48,5.82c5.13,3.8,6.71,6,6.71,11.74
		c0,4.87-1.71,9.48-8.11,9.48c-6.35,0-7.89-4.04-7.89-8.56v-2.04H93.42z"/>
</g>
<g>
	<path class="st0" d="M20.76,23.82c1.3,0,2.54,0.18,4,0.76l-0.31,3.52c-0.88-0.45-2.03-0.75-3.38-0.75c-2.04,0-3.87,0.82-3.87,3.09
		c0,2.29,2.02,3.16,4.01,3.16c1,0,2.06-0.3,3.24-1.02l0.66,3.49c-1.73,0.99-3.2,1.11-4.83,1.11c-4.03,0-7.31-2.58-7.31-6.68
		C12.98,26.02,16.52,23.86,20.76,23.82z"/>
	<path class="st0" d="M26.13,24.01h3.97v7.65c0,1.34,1.14,2.02,2.24,2.02c1.17,0,2.25-0.74,2.25-2.02v-7.65h3.97v8.06
		c0,3.5-3.19,5.1-6.23,5.1c-3.28,0-6.21-1.74-6.21-5.1V24.01z"/>
	<path class="st0" d="M49.98,24.66l-0.34,3.52c-0.98-0.56-2.33-1.01-3.97-1.01c-0.96,0-1.75,0.12-1.75,0.78
		c0,0.35,0.52,0.53,1.12,0.7l2.17,0.64c2.17,0.64,3.57,1.73,3.57,3.74c0,2.48-2.13,4.16-5.58,4.16c-2.75,0-4.56-0.68-5.49-1.11
		l0.45-3.5c1.07,0.56,2.4,1.18,4.74,1.18c0.84,0,1.44-0.19,1.44-0.69c0-0.3-0.23-0.53-0.93-0.73l-1.99-0.54
		c-1.71-0.46-3.73-1.41-3.73-3.97c0-2.5,2.32-4.03,5.75-4.03C47.43,23.81,48.95,24.18,49.98,24.66z"/>
	<path class="st0" d="M54.99,27.34h-3.62v-3.32h11.55v3.32h-3.77v9.65h-4.15V27.34z"/>
	<path class="st0" d="M70.53,23.82c4.1,0,6.93,2.74,6.93,6.67c0,3.94-2.84,6.69-6.93,6.69c-4.13,0-6.97-2.75-6.97-6.7
		C63.56,26.55,66.4,23.82,70.53,23.82z M70.54,33.54c1.64,0,2.73-1.23,2.73-3.05c0-1.78-1.09-2.99-2.73-2.99
		c-1.68,0-2.8,1.21-2.8,2.99C67.74,32.3,68.86,33.54,70.54,33.54z"/>
	<path class="st0" d="M81.91,24.01l4.31,4.89l4.3-4.89h3.3v12.97h-4v-6.77l-3.36,3.75h-0.42L82.6,30.2v6.78h-3.98V24.01H81.91z"/>
</g>
<g>
	<path class="st0" d="M13.88,40.24h5.2v15.5h0.05c1.31-3.39,4.25-10.78,6.14-15.5h5.89l-6.25,13.33l6.62,20.98h-5.76L21.29,59.1
		l-2.21,4.62v10.83h-5.2V40.24z"/>
	<path class="st0" d="M38.69,40.24v34.31h-5.29V40.24H38.69z"/>
	<path class="st0" d="M58.23,64.29v1.34c0,3.92-0.65,9.42-7.91,9.42c-6.35,0-7.7-3.97-7.7-9.21v-17.3c0-5.29,2.4-8.81,7.79-8.81
		c6.44,0,7.66,4.27,7.66,9.02v1.54h-5.3v-2.16c0-2.28-0.53-3.58-2.37-3.58c-1.81,0-2.39,1.25-2.39,3.6v18.14
		c0,2.24,0.45,3.98,2.45,3.98c1.91,0,2.42-1.51,2.42-4.06v-1.92H58.23z"/>
	<path class="st0" d="M61.33,40.24h5.2v15.5h0.05c1.32-3.39,4.25-10.78,6.14-15.5h5.89l-6.25,13.33l6.62,20.98h-5.76L68.74,59.1
		l-2.21,4.62v10.83h-5.2V40.24z"/>
	<path class="st0" d="M85.42,64.45v2.12c0,2.55,0.77,3.97,2.78,3.97c2.06,0,2.6-1.95,2.6-4.18c0-3.69-0.79-4.83-4.47-7.73
		c-3.69-2.92-5.66-4.78-5.66-9.86c0-4.52,1.37-9.09,7.56-9.08c6.33,0.01,7.31,4.52,7.31,8.24v1.83h-5.25v-1.69
		c0-2.39-0.4-3.84-2.16-3.84c-1.72,0-2.17,1.5-2.17,3.77c0,2.42,0.46,3.61,3.48,5.82c5.13,3.8,6.71,6,6.71,11.74
		c0,4.87-1.71,9.48-8.11,9.48c-6.35,0-7.89-4.04-7.89-8.56v-2.04H85.42z"/>
</g>
</svg>
